<svg xmlns="http://www.w3.org/2000/svg" x="0px" y="0px" viewBox="0 0 174 57.4" preserveAspectRatio="xMinYMid" aria-hidden="true" focusable="false">
<path fill="#FFFFFF" d="M93.3,5c0.1,0.4,0.1,0.8,0.1,1.3c0,0.1,0,0.2,0,0.3c-0.1,0-0.1,0-0.2,0c0,0-0.1,0-0.1,0
	c-0.2-0.6-0.6-1.1-1.1-1.4c-0.5-0.3-1.1-0.5-1.9-0.5c-0.4,0-0.7,0-1,0.1c-0.5,0.2-0.9,0.4-1.3,0.7c-0.4,0.3-0.7,0.6-0.9,1
	c-0.2,0.4-0.4,0.9-0.6,1.5c-0.1,0.6-0.2,1.1-0.2,1.7c0,1.1,0.2,2.1,0.5,2.8c0.3,0.7,0.8,1.3,1.4,1.6c0.6,0.3,1.2,0.5,1.8,0.5l0.4,0
	c0.4,0,0.7-0.1,0.9-0.1c0.4-0.1,0.7-0.2,1-0.4c0.2-0.1,0.5-0.4,0.7-0.6c0.2-0.3,0.4-0.6,0.6-1l0.1,0c0,0,0.1,0,0.1,0
	c0,0.1,0,0.2,0,0.2c-0.2,0.9-0.4,1.5-0.5,1.8c-0.1,0-0.2,0-0.3,0.1c-0.6,0.2-1.4,0.3-2.5,0.3c-0.8,0-1.5-0.1-1.9-0.2
	c-0.4-0.1-0.9-0.3-1.4-0.5c-0.5-0.2-0.9-0.6-1.3-1c-0.4-0.4-0.7-0.9-0.9-1.5c-0.2-0.6-0.3-1.3-0.3-2c0-0.7,0.1-1.3,0.3-1.8
	c0.2-0.5,0.5-1,0.8-1.5C86.1,6,86.5,5.5,87,5.2c0.5-0.3,1.1-0.6,1.7-0.7c0.4-0.1,1.1-0.1,1.9-0.1c0.6,0,1.1,0.1,1.7,0.2
	C92.7,4.7,93.1,4.8,93.3,5 M95.2,14.5c0.1,0,0.2-0.1,0.4-0.1c0.8,0,1.3-0.1,1.4-0.3c0.1-0.1,0.2-0.8,0.2-2l0-0.8v-0.9l0-1l0-0.6
	l0-0.6V7.5l0-0.3l0-0.4c0-0.1,0-0.2,0-0.3c0-0.3,0-0.7,0-1.1c0-0.1,0-0.1-0.1-0.2C96.7,5,96.4,5,96,4.9c-0.4,0-0.7-0.1-0.7-0.1
	c0,0-0.1-0.1-0.1-0.2h0.7l2.1,0c0.5,0,1.3,0,2.2,0c0,0.1,0,0.2,0,0.2c-0.1,0-0.3,0.1-0.5,0.1C99,4.9,98.7,5,98.6,5.1
	c-0.1,0-0.1,0.1-0.1,0.1c0,0.1-0.1,0.3-0.1,0.5l0,1l0,3.5v1.4c0,0.4,0,0.7,0,0.9c0,0.6,0,1,0,1.1c0,0.2,0.1,0.3,0.1,0.3
	c0.1,0.1,0.2,0.1,0.3,0.2c0.2,0.1,0.4,0.1,0.6,0.1c0.3,0,0.5,0,0.6,0.1c0,0.1,0,0.1,0,0.2v0.1c-0.5,0-0.8,0-1.1,0
	c-0.1,0-0.4,0-0.7,0l-1.1,0l-1.9,0h-0.1L95.2,14.5z M100.6,5.6l0.3-1.2c0-0.2,0-0.3,0.1-0.3c0,0,0.1-0.1,0.1-0.1
	c0.1,0,0.2,0.1,0.3,0.3c0.1,0.2,0.2,0.3,0.2,0.3c0.1,0,0.1,0.1,0.2,0.1l0.1,0l0.3,0l1.8,0l2.1,0h0.6l1.2,0c0,0,0.1,0,0.2,0
	c0.3,0,0.6,0,0.6,0s0.1,0,0.2-0.1c0,0,0.1-0.2,0.2-0.5c0.1-0.1,0.1-0.2,0.2-0.2c0,0,0.1,0,0.1,0c0,0.1,0,0.2,0,0.3l0,0.3l0,0.7
	c0,0.2,0,0.7,0,1.6c0,0.1,0,0.1,0,0.2c-0.1,0-0.1,0.1-0.1,0.1s-0.1,0-0.1-0.1c0,0-0.1-0.2-0.1-0.4c-0.1-0.5-0.2-0.8-0.4-1
	c-0.1-0.1-0.2-0.2-0.4-0.3c-0.2-0.1-0.6-0.1-1.4-0.1h-1.3c0,0.2,0,0.4,0,0.6l0.1,5c0,0.2,0,0.6,0,1.1l0,1.1l0,0.6
	c0,0.2,0,0.3,0.1,0.4c0.1,0.1,0.2,0.2,0.5,0.2c0.5,0.1,0.8,0.2,0.9,0.2c0.1,0,0.2,0,0.2,0.1v0.2l-1.1,0c-0.6,0-1,0-1.3,0l-1.1,0.1
	l-0.8,0c-0.2,0-0.4,0-0.4,0l-0.1,0c0-0.1,0-0.2,0.1-0.2c0,0,0.1-0.1,0.3-0.1c0.2,0,0.5-0.1,0.8-0.2c0.3-0.1,0.5-0.2,0.6-0.3
	c0,0,0.1-0.1,0.1-0.2c0-0.2,0.1-0.7,0.1-1.4v-1.4l0-3l0-0.6l0-2.2h-1.2c-0.7,0-1.2,0-1.3,0.1c-0.2,0.1-0.6,0.6-1.1,1.3
	c-0.2,0.3-0.3,0.4-0.4,0.4l-0.1,0c0,0,0-0.1,0-0.1c0-0.1,0-0.3,0.1-0.6C100.6,6,100.6,5.7,100.6,5.6 M110,4.5h0.4c0.1,0,0.4,0,0.9,0
	c0.7,0,1.3,0,1.8,0l0.9,0c0.1,0,0.3,0,0.4,0c0,0,0,0.1,0,0.1v0.1l-0.2,0.1h-0.1l-0.4,0l-0.2,0c-0.2,0-0.3,0-0.4,0.1
	c-0.1,0.1-0.1,0.1-0.1,0.2c0,0.1,0,0.2,0.1,0.3c0,0,0.1,0.1,0.1,0.2c0.1,0.2,0.2,0.4,0.4,0.6c0.2,0.3,0.5,0.8,0.8,1.2
	c0.1,0.2,0.2,0.4,0.3,0.5l1.2,1.8c0.1-0.1,0.2-0.2,0.3-0.4l1.1-1.6l1.3-2c0.1-0.2,0.2-0.3,0.2-0.4c0,0,0-0.1,0-0.1
	c0-0.1,0-0.2-0.1-0.3c-0.2-0.1-0.5-0.2-1.1-0.2c0,0-0.1,0-0.1,0c0-0.1-0.1-0.1-0.1-0.2c0,0,0-0.1,0-0.1l0.4,0l1.5,0l1.2,0
	c0,0,0.1,0,0.3,0l0,0.3c0,0-0.1,0-0.2,0l-0.2,0c0,0-0.1,0-0.1,0c-0.1,0-0.2,0.1-0.3,0.1c-0.8,0.8-1.4,1.6-2,2.3s-1,1.4-1.4,2
	c-0.1,0.2-0.2,0.3-0.3,0.4c-0.1,0.2-0.2,0.3-0.2,0.4c-0.1,0.2-0.1,0.5-0.1,0.9c0,1.6,0,2.6,0.1,2.9c0,0.1,0.1,0.2,0.1,0.3
	c0.1,0.1,0.7,0.1,1.6,0.2v0.1c0,0.1,0,0.1-0.1,0.2l-2-0.1l-1.4,0.1h-1.1c-0.1,0-0.2,0-0.3,0c0-0.1,0-0.1,0-0.1c0,0,0-0.1,0-0.1
	c0,0,0.1,0,0.1-0.1l1-0.2c0.4-0.1,0.6-0.2,0.6-0.2c0.1-0.1,0.1-0.2,0.1-0.3c0-0.1,0-0.8,0-2.2c0-0.5,0-0.8,0-0.9
	c0-0.1-0.1-0.3-0.3-0.6l-1-1.6l-1.8-2.6c-0.3-0.4-0.6-0.7-0.8-0.9c-0.1-0.1-0.3-0.1-0.8-0.2c0,0-0.1,0-0.2,0L110,4.5z M124.9,9.6
	c0-0.5,0.1-1,0.2-1.4c0.1-0.4,0.3-0.9,0.7-1.4c0.3-0.5,0.7-0.9,1.1-1.2c0.4-0.3,1-0.6,1.8-0.9c0.5-0.2,1.2-0.3,2-0.3
	c0.6,0,1.1,0.1,1.6,0.2c0.5,0.1,1,0.4,1.4,0.6c0.4,0.3,0.9,0.7,1.3,1.2c0.3,0.4,0.5,0.8,0.7,1.2c0.2,0.6,0.3,1.2,0.3,1.8
	c0,0.7-0.1,1.3-0.2,1.7c-0.1,0.5-0.4,0.9-0.7,1.4c-0.2,0.3-0.7,0.7-1.3,1.2c-0.4,0.3-0.9,0.6-1.5,0.7c-0.6,0.2-1.2,0.3-1.9,0.3
	c-0.7,0-1.3-0.1-1.9-0.2c-0.5-0.2-1-0.4-1.4-0.6c-0.4-0.2-0.7-0.6-1.1-1c-0.4-0.5-0.7-1-0.9-1.5C125,10.9,124.9,10.3,124.9,9.6
	 M130.5,14.6c0.4,0,0.9-0.1,1.4-0.2c0.5-0.1,0.9-0.3,1.3-0.6c0.4-0.3,0.7-0.6,0.9-1c0.2-0.4,0.4-0.8,0.5-1.4
	c0.1-0.6,0.2-1.2,0.2-1.7c0-0.7-0.1-1.4-0.3-2.1c-0.2-0.5-0.4-1-0.8-1.4c-0.4-0.4-0.8-0.7-1.3-1c-0.5-0.2-1.1-0.3-1.7-0.3
	c-0.5,0-1,0.1-1.4,0.2c-0.5,0.2-0.8,0.4-1.1,0.6c-0.3,0.2-0.6,0.6-0.8,1c-0.2,0.4-0.4,0.9-0.6,1.5s-0.2,1-0.2,1.4
	c0,0.4,0.1,0.9,0.2,1.5c0.1,0.6,0.3,1,0.5,1.4c0.2,0.4,0.5,0.8,0.8,1.1c0.3,0.3,0.7,0.6,1.1,0.7C129.5,14.5,130,14.6,130.5,14.6
	 M137.6,14.8l0-0.2c0.1-0.1,0.3-0.1,0.6-0.1c0.3,0,0.4-0.1,0.5-0.1c0.1,0,0.2-0.1,0.2-0.2c0-0.2,0.1-0.7,0.1-1.3V6.7l0-1
	c0-0.2,0-0.4-0.1-0.4c-0.1-0.1-0.3-0.1-0.6-0.2c-0.3-0.1-0.5-0.1-0.6-0.2c-0.1,0-0.1-0.1-0.1-0.1c0,0,0-0.1,0-0.1
	c0.1,0,0.1-0.1,0.2-0.1c0.1,0,0.2,0,0.5,0h0.2c0.1,0,0.3,0,0.6,0h1.1l2.2,0l2.4-0.1h0.2l0.3,0c0.1,0,0.2,0,0.2,0.1
	c0,0.1,0,0.1,0.1,0.2l0,0.3l0.1,1.4c0,0.1,0,0.1,0,0.2c-0.1,0-0.2,0.1-0.2,0.1c0,0-0.1,0-0.1,0c0-0.1-0.1-0.2-0.1-0.3
	c0-0.2-0.1-0.5-0.2-0.9c-0.1-0.2-0.2-0.3-0.3-0.3c-0.3-0.1-0.8-0.2-1.6-0.2c-0.3,0-0.7,0-1,0c-0.3,0-0.5,0-0.5,0l-0.6,0
	c-0.2,0-0.4,0-0.6,0.1c-0.1,0-0.2,0.2-0.2,0.3v0.1c0,0.3,0,0.6,0,0.9l0,2.2c0,0.2,0,0.4,0,0.6l0.2,0l0.4,0h1.5c0.6,0,1,0,1.2-0.1
	c0.1-0.1,0.3-0.1,0.3-0.3c0,0,0.1-0.2,0.2-0.6l0.1-0.7c0.1,0,0.1,0,0.1,0s0.1,0,0.1,0c0,0.1,0,0.3,0,0.6l0.1,2.9
	c-0.1,0-0.1,0.1-0.2,0.1l-0.1,0c-0.1-0.5-0.2-0.9-0.4-1.2c-0.1-0.1-0.1-0.2-0.2-0.2c-0.1,0-0.7,0-1.8,0c-0.3,0-0.6,0-0.7,0
	c-0.3,0-0.5,0-0.6,0h-0.1c-0.1,0-0.3,0-0.3,0.1c0,0.1,0,0.1,0,0.1v0.5c0,0.1,0,0.3,0,0.8l0,2.6c0,0.1,0,0.2,0.1,0.3
	c0.1,0.1,0.3,0.1,0.6,0.2s0.6,0.1,0.8,0.2c0.1,0.1,0.2,0.1,0.2,0.2c0,0,0,0.1,0,0.1s-0.1,0.1-0.1,0.1c-0.4-0.1-1-0.1-1.8-0.1
	c-0.4,0-0.8,0-1.3,0.1c-0.3,0-0.6,0.1-1,0.1L137.6,14.8z M93.4,40.5c0.1,0.4,0.1,0.8,0.1,1.3c0,0.1,0,0.2,0,0.3c-0.1,0-0.1,0-0.2,0
	c0,0-0.1,0-0.1,0c-0.2-0.6-0.6-1.1-1.1-1.4s-1.1-0.5-1.9-0.5c-0.4,0-0.7,0-1,0.1c-0.5,0.2-0.9,0.4-1.3,0.7c-0.4,0.3-0.7,0.6-0.9,1
	c-0.2,0.4-0.4,0.9-0.6,1.5c-0.1,0.6-0.2,1.2-0.2,1.7c0,1.1,0.2,2.1,0.5,2.8c0.3,0.7,0.8,1.3,1.4,1.6c0.6,0.3,1.2,0.5,1.8,0.5l0.4,0
	c0.4,0,0.7-0.1,0.9-0.1c0.4-0.1,0.7-0.2,1-0.4c0.2-0.1,0.5-0.4,0.7-0.6c0.2-0.3,0.4-0.6,0.6-1l0.1,0c0,0,0.1,0,0.1,0
	c0,0.1,0,0.2,0,0.2c-0.2,0.9-0.4,1.5-0.5,1.8c-0.1,0-0.2,0-0.3,0.1c-0.6,0.2-1.5,0.3-2.5,0.3c-0.8,0-1.5-0.1-1.9-0.2
	s-0.9-0.3-1.4-0.5c-0.5-0.2-0.9-0.6-1.3-1c-0.4-0.4-0.7-0.9-0.9-1.5c-0.2-0.6-0.3-1.3-0.3-2c0-0.7,0.1-1.3,0.3-1.8
	c0.2-0.5,0.5-1,0.8-1.5c0.4-0.5,0.8-1,1.3-1.3c0.5-0.3,1.1-0.6,1.7-0.7c0.4-0.1,1.1-0.1,1.9-0.1c0.6,0,1.1,0.1,1.7,0.2
	C92.8,40.2,93.2,40.4,93.4,40.5 M95.7,45.2c0-0.5,0.1-1,0.2-1.4c0.1-0.4,0.3-0.9,0.7-1.4c0.3-0.5,0.7-0.9,1.1-1.2
	c0.4-0.3,1-0.6,1.8-0.9c0.5-0.2,1.2-0.3,2.1-0.3c0.6,0,1.1,0.1,1.6,0.2c0.5,0.1,1,0.4,1.5,0.6c0.4,0.3,0.9,0.7,1.3,1.2
	c0.3,0.4,0.5,0.8,0.7,1.2c0.2,0.6,0.3,1.2,0.3,1.8c0,0.7-0.1,1.3-0.2,1.7c-0.1,0.5-0.4,0.9-0.7,1.4c-0.2,0.3-0.7,0.8-1.3,1.2
	c-0.4,0.3-0.9,0.6-1.5,0.7c-0.6,0.2-1.2,0.3-1.9,0.3c-0.7,0-1.3-0.1-1.9-0.2c-0.5-0.2-1-0.4-1.4-0.6c-0.4-0.2-0.7-0.6-1.1-1
	c-0.4-0.5-0.7-1-0.9-1.5C95.8,46.5,95.7,45.9,95.7,45.2 M101.2,50.1c0.4,0,0.9-0.1,1.4-0.2c0.5-0.1,0.9-0.3,1.3-0.6
	c0.4-0.3,0.7-0.6,0.9-1c0.2-0.4,0.4-0.8,0.5-1.4c0.1-0.6,0.2-1.2,0.2-1.7c0-0.7-0.1-1.4-0.3-2.1c-0.2-0.5-0.4-1-0.8-1.4
	c-0.4-0.4-0.8-0.7-1.3-1c-0.5-0.2-1.1-0.3-1.7-0.3c-0.5,0-1,0.1-1.4,0.2c-0.5,0.2-0.8,0.4-1.1,0.6s-0.6,0.6-0.8,1.1
	c-0.3,0.5-0.4,1-0.6,1.5c-0.1,0.5-0.2,1-0.2,1.5c0,0.4,0.1,0.9,0.2,1.5c0.1,0.6,0.3,1,0.5,1.5c0.2,0.4,0.5,0.8,0.9,1.1
	c0.3,0.3,0.7,0.6,1.1,0.7C100.3,50.1,100.8,50.1,101.2,50.1 M113,40c0,0.1,0,0.2,0,0.2c0,0,0,0.1,0,0.1c-0.1,0-0.2,0.1-0.3,0.1
	c0,0-0.1,0-0.2,0c-0.1,0-0.2,0-0.2,0c-0.2,0-0.4,0-0.6,0.1c-0.1,0.1-0.1,0.1-0.2,0.2l-0.1,0.9l0,3.9c0,1.4,0,2.3,0.1,2.7
	c0.1,0.4,0.2,0.6,0.5,0.9c0.2,0.2,0.5,0.4,1,0.6s0.8,0.2,1.2,0.2c0.9,0,1.6-0.1,2.1-0.4s0.8-0.6,1-1.1c0.2-0.5,0.3-1.2,0.3-2.1
	c0,0,0-0.2,0-0.6v-0.2c0-0.1,0-0.2,0-0.5c0-0.2,0-0.4,0-0.4l-0.1-2.3c0-0.8-0.1-1.2-0.1-1.4c0-0.1-0.1-0.2-0.2-0.3
	c-0.2-0.1-0.6-0.3-1.2-0.4c0-0.1,0-0.1,0-0.2c0.2,0,0.4,0,0.6,0c0.2,0,0.4,0,0.7,0c0.3,0,0.5,0,0.6,0l1.3,0l0.2,0l0,0.3
	c-0.6,0.1-1,0.2-1.2,0.3c-0.1,0.1-0.2,0.3-0.2,0.6c0,0.2,0,0.5,0,1.1l0.1,1.7l0,0.7l0,0.8c0,1,0,1.8-0.1,2.1
	c-0.1,0.5-0.2,0.9-0.4,1.3c-0.2,0.3-0.4,0.6-0.7,0.8c-0.3,0.2-0.7,0.4-1.2,0.6c-0.5,0.2-1,0.2-1.5,0.2c-0.8,0-1.3,0-1.6-0.2
	c-0.6-0.2-1.1-0.4-1.5-0.7c-0.4-0.3-0.6-0.6-0.7-0.9c-0.2-0.4-0.3-1-0.3-1.7v-0.5l0-2.2l0-1.8v-1.2c0-0.3,0-0.5-0.1-0.6
	c-0.1-0.1-0.1-0.1-0.3-0.1l-0.5,0c-0.3,0-0.6,0-0.7-0.1c0,0,0-0.1,0-0.1c0,0,0-0.1,0-0.1c0.1,0,0.1-0.1,0.2-0.1h0.2l0.5,0h1.3
	L113,40z M120.7,40.5l0-0.4c0.8,0,1.4,0,1.8-0.1c0.1,0,0.2,0,0.3,0c0,0,0.1,0,0.2,0c0.2,0.2,0.4,0.4,0.6,0.6c0,0,0.1,0.1,0.1,0.2
	l1.7,1.9l0.2,0.3c0.3,0.4,0.6,0.7,0.9,1c0.3,0.3,0.8,0.9,1.6,1.8l1.9,2.1c0.2,0.2,0.4,0.5,0.7,0.8l0-0.1c0-0.7,0-1.1,0-1.2l0-0.5
	l0-0.7v-0.3c0-0.2,0-0.9-0.1-2c0-0.2,0-0.4-0.1-0.9c0-0.4-0.1-0.8-0.1-1.1c0-0.6,0-0.9-0.1-1c0-0.1-0.3-0.1-0.7-0.2
	c-0.1,0-0.2,0-0.4,0c-0.2,0-0.4,0-0.4,0s-0.1-0.1-0.1-0.1c0-0.1,0-0.2,0.1-0.2c0.1,0,0.3-0.1,0.4-0.1c0.1,0,0.3,0,0.6,0.1
	c0.2,0,0.4,0.1,0.6,0.1c0.2,0,0.6,0,1.1,0c0.3,0,0.5,0,0.6,0h0.1l0,0.2c-0.1,0-0.2,0.1-0.3,0.1c-0.1,0-0.3,0-0.4,0.1
	c-0.2,0.1-0.3,0.1-0.3,0.1c-0.1,0.1-0.2,0.3-0.2,0.4l0.1,2.5l0.1,1.2l0,0.3l0,1.6c0,1.1,0,2,0,2.9c0,0.2,0,0.6,0,1.1l-0.4,0
	c-0.2-0.2-0.8-0.9-1.9-2c-0.3-0.3-0.4-0.4-0.5-0.5l-0.7-0.8c-0.3-0.3-0.4-0.5-0.5-0.6c-0.1-0.1-0.1-0.1-0.2-0.2
	c-0.6-0.7-1.3-1.5-2.3-2.5c-0.2-0.3-0.6-0.7-1.1-1.2c-0.3-0.4-0.5-0.6-0.6-0.7c-0.1-0.1-0.2-0.2-0.3-0.3l0,0.3c0,1,0,2.5,0.1,4.3
	l0.1,2.6c0,0.2,0,0.4,0,0.6l0.3,0.1c0.5,0,1,0.1,1.5,0.2c0,0,0.1,0.1,0.1,0.1l0,0.3c-0.1,0-0.1,0-0.2,0s-0.1,0-0.2,0
	c-0.5,0-1.2-0.1-1.9-0.1c-0.5,0-1,0-1.4,0l-0.1,0c0,0-0.1,0-0.2,0l0-0.2l0.2-0.1l0.4-0.1c0.3,0,0.6-0.1,0.7-0.2
	c0.1,0,0.2-0.1,0.2-0.2c0.1-0.4,0.1-0.9,0.1-1.6c0-0.3,0-0.9,0-1.8v-1.1l0-2.3c0-1,0-1.6-0.1-1.8c0-0.1-0.1-0.2-0.2-0.3
	c-0.2-0.1-0.5-0.2-0.8-0.3C121,40.6,120.8,40.6,120.7,40.5 M142.7,40.5c0.1,0.4,0.1,0.8,0.1,1.3c0,0.1,0,0.2,0,0.3
	c-0.1,0-0.1,0-0.2,0c0,0-0.1,0-0.1,0c-0.2-0.6-0.6-1.1-1.1-1.4s-1.1-0.5-1.9-0.5c-0.4,0-0.7,0-1,0.1c-0.5,0.2-0.9,0.4-1.3,0.7
	c-0.4,0.3-0.7,0.6-0.9,1c-0.2,0.4-0.4,0.9-0.6,1.5s-0.2,1.2-0.2,1.7c0,1.1,0.2,2.1,0.5,2.8c0.3,0.7,0.8,1.3,1.4,1.6
	c0.6,0.3,1.2,0.5,1.8,0.5l0.4,0c0.4,0,0.7-0.1,0.9-0.1c0.4-0.1,0.7-0.2,1-0.4c0.2-0.1,0.5-0.4,0.7-0.6c0.2-0.3,0.4-0.6,0.6-1l0.1,0
	c0,0,0.1,0,0.1,0c0,0.1,0,0.2,0,0.2c-0.2,0.9-0.4,1.5-0.5,1.8c-0.1,0-0.2,0-0.3,0.1c-0.6,0.2-1.5,0.3-2.5,0.3
	c-0.8,0-1.5-0.1-1.9-0.2c-0.4-0.1-0.9-0.3-1.4-0.5c-0.5-0.2-0.9-0.6-1.3-1s-0.7-0.9-0.9-1.5c-0.2-0.6-0.3-1.3-0.3-2
	c0-0.7,0.1-1.3,0.3-1.8c0.2-0.5,0.5-1,0.8-1.5c0.4-0.5,0.8-1,1.3-1.3c0.5-0.3,1.1-0.6,1.7-0.7c0.4-0.1,1.1-0.1,1.9-0.1
	c0.6,0,1.1,0.1,1.7,0.2C142.2,40.2,142.6,40.4,142.7,40.5 M144.5,50c0.1,0,0.2-0.1,0.4-0.1c0.8,0,1.3-0.1,1.4-0.3
	c0.1-0.1,0.2-0.8,0.2-2l0-0.8v-0.9l0-1l0-0.6l0-0.6V43l0-0.3l0-0.4c0-0.1,0-0.2,0-0.3c0-0.3,0-0.7,0-1.1c0-0.1,0-0.1-0.1-0.2
	c-0.2-0.1-0.5-0.2-1-0.2c-0.4,0-0.7-0.1-0.7-0.1c0,0-0.1-0.1-0.1-0.2h0.7l2.1,0c0.5,0,1.3,0,2.2,0c0,0.1,0,0.2,0,0.2
	c-0.1,0-0.3,0.1-0.5,0.1c-0.5,0.1-0.8,0.1-0.9,0.2c-0.1,0-0.1,0.1-0.1,0.1c0,0.1-0.1,0.3-0.1,0.5l0,1l0,3.5v1.4c0,0.4,0,0.7,0,0.9
	c0,0.6,0,1,0,1.1c0,0.2,0.1,0.3,0.1,0.4c0.1,0.1,0.2,0.1,0.4,0.2c0.2,0.1,0.4,0.1,0.6,0.1c0.3,0,0.5,0,0.6,0.1c0,0.1,0,0.1,0,0.2
	v0.1c-0.5,0-0.8,0-1.1,0c-0.1,0-0.4,0-0.7,0l-1.1,0l-1.9,0h-0.1L144.5,50z M150.7,50.3c0-0.1,0-0.1,0.1-0.2c0.4-0.1,0.8-0.2,1.1-0.2
	c0.2,0,0.4-0.1,0.5-0.2c0-0.1,0.1-0.3,0.1-0.8l0-2.1l0-1.4l0-1.9v-0.5c0-1.1,0-1.8,0-2.1c0,0,0-0.1-0.1-0.2
	c-0.1-0.1-0.2-0.1-0.3-0.1c-0.1,0-0.5-0.1-1.2-0.2c0-0.1,0-0.1,0-0.1c0,0,0-0.1,0-0.1c0.1,0,0.2,0,0.5,0l1.1,0l0.6,0l0.2,0
	c0,0,0.1,0,0.2,0c0.3,0,0.5,0,0.5,0l0.6,0c0.4,0,0.7,0,0.8,0c0,0.1,0,0.2,0,0.3c0,0-0.3,0-0.8,0c-0.5,0-0.7,0-0.8,0.1
	c-0.1,0.1-0.2,0.3-0.2,0.6c0,0.1,0,0.3,0,0.5v0.5l0,1.5v0.5l0,2.6l0,2.2l0,0.5c0,0.2,0,0.3,0.1,0.3c0.1,0,0.5,0,1.1,0h0.5l1.3,0
	c0.3,0,0.6,0,0.7-0.1c0.1-0.1,0.4-0.2,0.7-0.5c0.2-0.2,0.4-0.4,0.5-0.6c0,0,0.1-0.1,0.1-0.2c0.1-0.1,0.2-0.4,0.4-0.8h0.2
	c0,0.2-0.1,0.4-0.1,0.5c-0.1,0.7-0.2,1.4-0.3,1.9c0,0.1,0,0.2,0,0.3l-2.8-0.1c-2.4,0-3.8,0-4.2,0.1c-0.1,0-0.3,0-0.4,0L150.7,50.3
	L150.7,50.3z M57.5,34.8l0.2-1c1.6,0,2.8-1.2,3.4-3.5c0-0.2,0.1-0.3,0.1-0.4l4-14.4c0.1-0.4,0.2-0.6,0.2-0.8s0.1-0.3,0.1-0.4
	c0-0.9-1-1.5-2.9-1.7c0,0-0.1,0-0.1,0l0.4-1.1h0.5c0.7,0,1.5,0,2.4,0.1s1.6,0.1,1.9,0.1c0.4,0,1.2,0,2.3-0.1c1.1,0,2-0.1,2.7-0.1
	h0.5l-0.2,1.1c-1.1,0-1.8,0.3-2.3,0.7s-0.9,1.3-1.3,2.6l-4.1,14.5c-0.1,0.3-0.1,0.6-0.2,0.9c0,0.3-0.1,0.5-0.1,0.8
	c0,0.6,0.2,1,0.5,1.2c0.4,0.2,1,0.3,2,0.3h0c0.1,0,0.2,0,0.3,0h1.8c1.1,0,2,0,2.6-0.1c0.6-0.1,1.1-0.2,1.5-0.4
	c0.7-0.3,1.7-1.2,2.9-2.8c0.2-0.3,0.4-0.5,0.5-0.6l1.1,0.4c-0.7,1.4-1.1,2.4-1.4,3.1c-0.3,0.7-0.5,1.3-0.6,1.7c-0.4,0-0.9,0-1.5,0.1
	c-0.9,0-1.5,0.1-1.7,0.1c-0.4,0-1.4,0-2.9-0.1c-1.5,0-2.7-0.1-3.8-0.1c-0.9,0-2.3,0-4.2,0.1C60.1,34.7,58.6,34.8,57.5,34.8
	 M90.2,30.6c-1.2,1.5-2.3,2.6-3.3,3.4c-1.1,0.8-2,1.2-2.8,1.2c-0.6,0-1.1-0.2-1.5-0.5c-0.4-0.4-0.5-0.8-0.5-1.5c0-0.6,0.5-2.2,1.6-5
	l0.2-0.4c0.2-0.4,0.4-1,0.7-1.7c0.7-1.8,1.1-2.9,1.1-3.1c0-0.2-0.1-0.3-0.2-0.5s-0.3-0.2-0.5-0.2c-0.3,0-0.6,0.1-1,0.3
	c-0.3,0.2-0.9,0.7-1.7,1.5l-0.7-0.6c1.2-1.4,2.3-2.4,3.2-3c0.9-0.6,1.8-1,2.5-1c0.6,0,1,0.2,1.3,0.5c0.3,0.3,0.5,0.8,0.5,1.3
	c0,0.7-0.7,2.9-2.1,6.4c-0.3,0.8-0.5,1.4-0.7,1.8c-0.2,0.5-0.3,0.9-0.4,1.3c-0.1,0.4-0.2,0.7-0.2,0.9c0,0.2,0,0.4,0.2,0.6
	c0.1,0.1,0.3,0.2,0.5,0.2c0.3,0,0.7-0.2,1.3-0.6c0.5-0.4,1.1-1,1.9-1.9L90.2,30.6z M94.1,24.4l-0.8-0.4c0.7-1.4,1.4-2.5,2.2-3.3
	c0.8-0.8,1.6-1.1,2.4-1.1c0.5,0,0.9,0.2,1.2,0.5c0.3,0.3,0.4,0.7,0.4,1.3c0,0.4,0,0.9-0.2,1.5c-0.1,0.6-0.3,1.3-0.4,2
	c1.3-1.8,2.6-3.1,3.7-3.9c1.2-0.9,2.3-1.3,3.4-1.3c0.8,0,1.4,0.2,1.9,0.6c0.5,0.4,0.7,1,0.7,1.7c0,0.4-0.1,0.8-0.2,1.3
	c-0.1,0.5-0.4,1.2-0.8,2.2l-0.2,0.5c-1.3,3.3-1.9,5.2-1.9,5.6c0,0.2,0.1,0.4,0.2,0.5c0.1,0.1,0.3,0.2,0.5,0.2c0.3,0,0.6-0.1,1-0.4
	c0.4-0.3,1-0.9,1.8-1.8l0.7,0.7c-1.2,1.5-2.4,2.7-3.4,3.4c-1,0.7-1.9,1.1-2.7,1.1c-0.6,0-1-0.2-1.3-0.5c-0.3-0.3-0.5-0.8-0.5-1.3
	c0-0.3,0-0.7,0.1-1.1c0.1-0.4,0.3-1,0.5-1.6l2.2-5.9c0-0.1,0.1-0.2,0.1-0.4c0.3-0.8,0.4-1.4,0.4-1.8c0-0.3-0.1-0.6-0.3-0.8
	c-0.2-0.2-0.5-0.3-0.8-0.3c-0.8,0-1.8,0.7-2.9,2c-1.1,1.4-2,3.2-2.9,5.4l-1.9,4.8c-0.2,0.5-0.4,0.9-0.6,1c-0.2,0.1-0.5,0.2-0.9,0.2
	h-0.3l-0.2,0c-0.5,0-0.8-0.1-1.1-0.2c-0.2-0.1-0.4-0.3-0.4-0.5c0,0,0-0.1,0-0.2c0-0.1,0-0.1,0.1-0.2l0.1-0.3c1.2-2.8,2-4.9,2.5-6.4
	s0.8-2.5,0.8-3.1c0-0.4-0.1-0.7-0.2-0.9c-0.2-0.2-0.4-0.3-0.7-0.3c-0.2,0-0.4,0.1-0.7,0.4C94.8,23.4,94.5,23.8,94.1,24.4
	 M124.1,31.5c-0.9,1.2-1.9,2.2-3,2.8c-1,0.6-2.2,0.9-3.3,0.9c-1.5,0-2.7-0.5-3.6-1.5c-0.9-1-1.3-2.4-1.3-4.1c0-1.3,0.2-2.6,0.7-3.8
	c0.5-1.2,1.2-2.3,2.2-3.4c0.9-1,2-1.7,3.1-2.2s2.2-0.8,3.4-0.8c1.3,0,2.3,0.3,3.1,0.8c0.8,0.5,1.2,1.3,1.2,2.1c0,0.5-0.2,1-0.5,1.3
	c-0.3,0.3-0.7,0.5-1.2,0.5c-0.5,0-0.9-0.2-1.1-0.5c-0.3-0.3-0.4-0.8-0.4-1.4c0,0,0-0.2,0-0.3c0-0.2,0-0.3,0-0.4
	c0-0.3-0.1-0.6-0.4-0.8s-0.7-0.3-1.2-0.3c-0.5,0-0.9,0.1-1.4,0.3c-0.5,0.2-0.9,0.6-1.4,1c-0.9,0.9-1.5,1.9-2,3.2
	c-0.5,1.2-0.7,2.5-0.7,3.9c0,1.3,0.3,2.2,0.9,2.9c0.6,0.7,1.4,1,2.4,1c0.7,0,1.3-0.2,2-0.5c0.6-0.3,1.3-0.9,2-1.6L124.1,31.5z
	 M137.3,19.5c1.6,0,2.9,0.5,3.9,1.6c1,1.1,1.5,2.5,1.5,4.3c0,1.1-0.2,2.1-0.6,3.2c-0.4,1.1-0.9,2.1-1.7,3.1c-0.8,1.1-1.8,2-2.9,2.6
	c-1.1,0.6-2.3,0.9-3.4,0.9c-1.7,0-3-0.5-4-1.6c-1-1.1-1.5-2.5-1.5-4.3c0-1.1,0.2-2.2,0.6-3.2c0.4-1.1,1-2.1,1.7-3.1
	c0.9-1.1,1.9-2,3-2.6C134.9,19.8,136.1,19.5,137.3,19.5 M137.1,20.7c-0.6,0-1.1,0.2-1.6,0.6c-0.5,0.4-1,1.1-1.4,2.1
	c-0.7,1.3-1.2,2.7-1.6,4.1c-0.4,1.4-0.6,2.7-0.6,3.8c0,0.9,0.2,1.6,0.5,2.1c0.4,0.5,0.9,0.7,1.6,0.7c0.7,0,1.3-0.2,1.8-0.7
	s1.1-1.3,1.6-2.4c0.6-1.2,1-2.5,1.4-3.8c0.3-1.3,0.5-2.5,0.5-3.6c0-0.9-0.2-1.6-0.6-2.1C138.3,20.9,137.8,20.7,137.1,20.7
	 M154.3,30.6c-1.2,1.5-2.3,2.6-3.3,3.4c-1.1,0.8-2,1.2-2.8,1.2c-0.6,0-1.1-0.2-1.5-0.5c-0.3-0.3-0.5-0.8-0.5-1.4
	c0-0.3,0.1-1,0.4-1.9c0-0.1,0-0.2,0.1-0.3l5.1-17.8c0.1-0.2,0.1-0.5,0.2-0.7c0-0.2,0.1-0.4,0.1-0.6c0-0.7-0.7-1.2-2.2-1.3
	c-0.2,0-0.4,0-0.5,0l0.2-1c1.1-0.1,2.3-0.2,3.3-0.4c1.1-0.2,2.1-0.5,3.2-0.8l0.4,0.2c-0.3,0.9-0.6,1.9-1,3c-0.3,1.1-0.7,2.3-1.1,3.7
	l-4.1,14.3c-0.2,0.5-0.3,0.9-0.3,1.2c-0.1,0.3-0.1,0.5-0.1,0.8c0,0.2,0,0.4,0.2,0.5c0.1,0.1,0.3,0.2,0.5,0.2c0.3,0,0.7-0.2,1.3-0.6
	c0.5-0.4,1.1-1,1.8-1.9L154.3,30.6z M158.4,24.4l-0.8-0.4c0.7-1.4,1.4-2.5,2.2-3.3c0.8-0.8,1.6-1.1,2.4-1.1c0.5,0,0.9,0.2,1.2,0.5
	c0.3,0.3,0.4,0.7,0.4,1.3c0,0.4,0,0.9-0.2,1.5c-0.1,0.6-0.3,1.3-0.5,2c1.3-1.8,2.6-3.1,3.7-3.9c1.2-0.9,2.3-1.3,3.4-1.3
	c0.8,0,1.4,0.2,1.9,0.6c0.5,0.4,0.7,1,0.7,1.7c0,0.4-0.1,0.8-0.2,1.3s-0.4,1.2-0.8,2.2l-0.2,0.5c-1.3,3.3-1.9,5.2-1.9,5.6
	c0,0.2,0.1,0.4,0.2,0.5c0.1,0.1,0.3,0.2,0.5,0.2c0.3,0,0.6-0.1,1-0.4c0.4-0.3,1-0.9,1.8-1.8l0.7,0.7c-1.2,1.5-2.4,2.7-3.4,3.4
	c-1,0.7-1.9,1.1-2.7,1.1c-0.6,0-1-0.2-1.3-0.5c-0.3-0.3-0.5-0.8-0.5-1.3c0-0.3,0-0.7,0.1-1.1c0.1-0.4,0.3-1,0.5-1.6l2.2-5.9
	c0-0.1,0.1-0.2,0.1-0.4c0.3-0.8,0.4-1.4,0.4-1.8c0-0.3-0.1-0.6-0.3-0.8c-0.2-0.2-0.5-0.3-0.8-0.3c-0.8,0-1.8,0.7-2.9,2
	c-1.1,1.4-2,3.2-2.9,5.4l-1.9,4.8c-0.2,0.5-0.4,0.9-0.6,1c-0.2,0.1-0.5,0.2-0.9,0.2H159l-0.2,0c-0.5,0-0.8-0.1-1.1-0.2
	c-0.2-0.1-0.4-0.3-0.4-0.5c0,0,0-0.1,0-0.2c0-0.1,0-0.1,0.1-0.2l0.1-0.3c1.2-2.8,2-4.9,2.5-6.4c0.5-1.5,0.8-2.5,0.8-3.1
	c0-0.4-0.1-0.7-0.2-0.9s-0.4-0.3-0.7-0.3c-0.2,0-0.4,0.1-0.7,0.4C159,23.4,158.7,23.8,158.4,24.4 M0,0v30.3l0,0
	c0,0.2,1.2,6,4.2,10.4c3.4,4.8,8.8,10.1,13.2,12.8c4.5,2.7,7.4,3.8,7.6,3.8l0,0l0,0l0,0c0.2-0.1,3.1-1.1,7.6-3.8
	c4.4-2.7,9.8-7.9,13.2-12.8c3-4.4,4.2-10.1,4.2-10.4l0,0V0H0z M49.2,18H32V0.9h17.1V18z M17.3,18H0.9V0.9h16.4
	C17.3,0.9,17.3,18,17.3,18z M4.9,40.2c-1.7-2.4-2.8-5.3-3.4-7.4h15.7v19.5C13.1,49.7,8.1,44.8,4.9,40.2 M45.1,40.2
	c-3.3,4.7-8.6,9.9-12.9,12.5c0,0-0.1,0-0.1,0.1v-20h16.5C47.9,34.9,46.8,37.8,45.1,40.2 M48.7,32H31.2v21.3
	c-3.2,1.8-5.4,2.8-6.2,3.1c-0.8-0.3-3.4-1.4-7-3.5V32.1H1.3c-0.3-1-0.4-1.7-0.5-1.9V18.8h17.2V0.9h13.1v17.9h17.9v11.5
	C49.1,30.4,49,31.1,48.7,32 M32.9,22.5L32.9,22.5c-0.1-0.1-0.1-0.1-0.2-0.1c-0.4-0.2-0.8-0.3-1.2-0.4l0,0c-0.6-0.1-1.3-0.1-1.8,0.1
	h0c-1.5,0.5-2.5,1.5-3,2.2c0.2-1.1,0.4-2.4,0.4-3.7c0-2.3-0.6-4.4-1.1-5.8c-0.5-1.5-1.1-2.5-1.1-2.5L24.6,12l-0.2,0.4
	c0,0-0.6,1-1.1,2.5c-0.5,1.4-1.1,3.5-1.1,5.8c0,1.4,0.2,2.7,0.4,3.8c-0.5-0.8-1.4-1.8-3-2.3h0C19,22,18.3,21.9,17.7,22l0,0
	c-0.4,0.1-0.8,0.2-1.2,0.4c0,0-0.1,0-0.1,0.1l-0.1,0c-0.5,0.3-2.2,1.5-1.8,3.8c0.4,1.8,2.4,2.8,3.7,2.8c0.2,0,0.4,0,0.5-0.1l0.4-0.2
	l-0.3-0.3c-0.2-0.1-0.9-0.9-0.6-1.7c0.3-0.8,0.9-1.2,1.7-1.2c0,0,0,0,0.1,0c0.3,0,0.7,0.2,1,0.5c0.5,0.5,0.8,1.2,1,1.7
	c0,0,0,0.1,0,0.1c-0.4,0-0.7,0.4-0.7,0.8V29c0,0.4,0.4,0.8,0.9,0.8h0c0,0.1-0.1,0.2-0.2,0.4c0,0-0.1,0.1-0.1,0.1
	c-0.2-0.1-0.5-0.2-0.8-0.2c-1,0-1.8,0.8-1.8,1.8c0,0.9,0.8,1.7,1.8,1.7c0.2,0,0.3,0,0.5-0.1c0,0,0,0,0.1,0c0,0,0.1,0,0.1,0l0,0
	c0.3-0.1,0.6-0.3,0.8-0.6c0.6-0.6,0.8-1.4,0.9-2c0,0.4-0.1,0.8-0.1,1.3c-0.2,2,1,3.7,1.1,3.8l0.2,0.3l0.2-0.3c0-0.1,1.2-1.8,1.1-3.8
	c0-0.3,0-0.5-0.1-0.8c0.1,0.5,0.4,1,0.8,1.5c0.2,0.3,0.5,0.5,0.8,0.6l0,0c0,0,0,0,0.1,0c0,0,0,0,0.1,0c0.1,0,0.3,0.1,0.5,0.1
	c1,0,1.8-0.8,1.8-1.7c0-1-0.8-1.8-1.8-1.8c-0.3,0-0.6,0.1-0.8,0.2c0,0-0.1,0-0.1-0.1C27.1,30,27,29.9,27,29.8h0.1
	c0.5,0,0.9-0.4,0.9-0.8v-0.1c0-0.4-0.4-0.8-0.8-0.8c0,0,0-0.1,0-0.1c0.2-0.6,0.4-1.2,1-1.7c0.3-0.3,0.7-0.5,1-0.5c0,0,0,0,0.1,0
	c0.8,0,1.4,0.4,1.7,1.2c0.3,0.8-0.5,1.6-0.6,1.7L30,28.8l0.4,0.2c0.1,0,0.3,0.1,0.5,0.1c1.3,0,3.3-1,3.7-2.8
	C35.1,24,33.4,22.8,32.9,22.5 M23.8,15.2c0.3-0.8,0.6-1.5,0.8-2c0.5,1.1,1.9,4.2,1.9,7.5c0,2.3-0.5,4.3-0.9,5.6
	C25.4,27,25.2,27.6,25,28h-0.9c-0.1-0.4-0.3-0.9-0.6-1.7c-0.4-1.3-0.9-3.3-0.9-5.6C22.7,18.5,23.3,16.5,23.8,15.2 M21.4,25.7
	c-0.5-0.4-0.9-0.6-1.4-0.6c0,0,0,0-0.1,0c-1.1,0-1.9,0.5-2.2,1.5v0c-0.3,0.8,0.1,1.4,0.4,1.9c-0.9-0.1-2.7-0.8-3-2.4
	c-0.4-1.9,1.1-2.9,1.5-3.2l0.1,0c0,0,0,0,0.1,0c0.3-0.2,0.7-0.3,1-0.3h0c0.5-0.1,1.1,0,1.6,0.1l0,0c1.7,0.5,2.6,1.8,2.9,2.4l0.2,0.4
	l0.3,0.8c0.1,0.7,0.2,1.2,0.2,1.6c0,0,0,0,0,0.1h-0.3c0-0.1,0-0.2-0.1-0.3C22.3,27.1,22,26.3,21.4,25.7 M22.1,32.4L22.1,32.4
	c-0.2,0.2-0.4,0.3-0.6,0.4l0,0c0,0,0,0,0,0c0,0,0,0,0,0c-0.1,0-0.2,0-0.3,0c-0.7,0-1.3-0.5-1.3-1.2c0-0.7,0.6-1.2,1.3-1.2
	c0.2,0,0.4,0.1,0.6,0.2l0.1,0.1l0.1-0.1c0.1,0,0.3-0.1,0.4-0.3c0.2-0.2,0.3-0.5,0.3-0.7h0.2C23,30.3,22.9,31.6,22.1,32.4 M24.6,35.2
	c-0.3-0.5-0.8-1.7-0.7-3c0.1-1.1,0.3-2,0.4-2.4H25c0.1,0.5,0.3,1.3,0.4,2.4C25.4,33.5,24.9,34.6,24.6,35.2 M27.2,30.8l0.1,0.1
	l0.1-0.1c0.2-0.1,0.4-0.2,0.6-0.2c0.7,0,1.3,0.6,1.3,1.2c0,0.6-0.6,1.2-1.3,1.2c-0.1,0-0.2,0-0.3,0c0,0,0,0,0,0c0,0,0,0,0,0l0,0
	c-0.2-0.1-0.4-0.2-0.6-0.4l0,0c-0.8-0.9-0.8-2.2-0.8-2.7h0.2c0,0.2,0.1,0.5,0.3,0.7C26.9,30.7,27.1,30.7,27.2,30.8 M27.5,28.8v0.1
	c0,0.2-0.2,0.3-0.3,0.3h-5c-0.2,0-0.3-0.1-0.3-0.3v-0.1c0-0.2,0.2-0.3,0.3-0.3h5C27.3,28.5,27.5,28.6,27.5,28.8 M34.1,26.2
	c-0.3,1.6-2.1,2.3-3,2.4c0.3-0.4,0.7-1.1,0.4-1.9v0c-0.4-1-1.2-1.5-2.2-1.5c0,0,0,0-0.1,0c-0.5,0-0.9,0.2-1.4,0.6
	c-0.6,0.6-0.9,1.4-1.1,2c0,0.1,0,0.2-0.1,0.3h-0.3c0,0,0,0,0-0.1c0-0.3,0-0.9,0.2-1.6l0.3-0.8l0.2-0.4c0.3-0.6,1.2-1.9,2.9-2.4l0,0
	c0.5-0.2,1-0.2,1.6-0.1h0c0.3,0,0.7,0.2,1,0.3c0,0,0.1,0,0.1,0l0.1,0C33,23.3,34.5,24.3,34.1,26.2"/>
</svg>
