<svg width="370" height="146" viewBox="0 0 370 146" fill="none" xmlns="http://www.w3.org/2000/svg">
<g clip-path="url(#clip0_102_50)">
<path fill-rule="evenodd" clip-rule="evenodd" d="M316.25 7.15C315.53 5.21 316.76 2.51 315.77 0.0300024C314.95 -0.0699976 314.44 0.120002 313.87 0.270002C313.22 2.79 311.7 4.43 311.49 7.39C310.04 7.2 310.32 8.75 309.83 9.53C307.38 9.31 308.17 12.45 305.56 11.43C305.73 12.16 304.91 11.89 305.08 12.62V13.09C304.32 13.12 304.37 13.97 303.65 14.04C303.32 13.5 303.39 12.56 302.46 12.62C301.23 12.89 300.94 14.11 300.56 15.23V15.47H300.32C300.51 16.61 299.05 16.1 298.89 16.9C298.4 16.83 298.42 16.27 298.18 15.95H296.76C296.17 17.15 295.46 18.78 295.81 20.23C294.86 20.08 295.13 21.13 295.1 21.89C294.36 21.78 294.04 22.1 294.15 22.84V23.08H293.91C291.1 23.13 292.58 25.7 292.25 27.59C291.93 29.37 290.44 29.78 290.11 30.91C290.2 32.56 290.04 33.76 290.35 34.71V34.95C287.55 38.83 290.04 44.42 289.64 48.49C291.94 50.57 289.33 57.34 291.54 58.94C290.69 59.42 291.11 60.99 291.78 61.32C291.65 62.67 291.42 63.42 292.26 64.17C294.51 66.19 293.13 69.28 294.63 71.53V71.77C292.25 73.23 295.35 76.51 295.58 78.42V78.66C295.73 82.44 298.13 86.33 297 89.82C295.16 87.71 294.06 84.84 292.49 82.46V82.22C292.66 80.86 291.91 80.43 291.54 79.61C291.54 78.19 290.75 77.55 291.07 75.81C290.18 74.22 290.22 72.19 289.17 70.35V66.55C287.04 63.18 287.2 58.9 284.18 56.34V55.63C282.44 50.88 278.4 48.42 275.63 44.71C270.44 44.24 270.02 40.45 264.71 40.2C264.55 40.67 263.99 40.74 263.76 41.15C262.34 41.08 259.52 39.04 257.82 41.39C257.86 40.88 256.98 41.28 256.63 41.15C256.29 42.33 254.65 42.77 253.78 42.1C253.5 42.54 253.16 42.9 252.83 43.29C248.22 42.49 245.49 38.47 241.67 36.17C241.32 36.37 241.16 36.77 241.2 37.36V38.31C241.13 38.85 241.26 39.2 241.67 39.26V39.97C242.66 41.55 242.63 42.77 244.28 43.77C243.42 44.96 244.93 45.81 245.47 46.38C245.61 47.15 245.31 47.48 245.23 48.04V48.52C245.19 49.11 245.6 49.25 245.71 49.71C245.02 50.13 245.45 51.67 244.76 52.09V52.33C244.1 53.01 244.9 54.23 245.23 54.7V55.41C245.14 55.98 245.67 55.93 245.47 56.6H245C243.42 58.1 246.36 59.48 245.24 61.35V62.3C245.17 64.74 247.15 65.14 247.14 67.52C251.52 71.61 255.16 76.44 261.63 78.44C261.64 78.58 261.66 78.72 261.87 78.68C264.73 81.28 268.77 82.7 272.79 84.14H273.26C274.55 84.84 275.64 85.71 277.3 86.04H277.54C280.67 87.97 284.42 89.29 288.23 90.55H288.94C289.27 90.54 289.46 90.66 289.65 90.79C289.65 91.03 289.46 91.07 289.41 91.27C291.05 91.76 292.52 92.44 294.4 92.69C294.69 92.74 294.55 92.95 294.4 93.17C288.87 94.88 283.08 95.5 278.97 97.68C278.5 97.68 278.67 98.33 278.02 98.15C276.54 98.25 276.02 99.32 275.65 100.53C274.35 100.74 273.08 100.97 272.56 101.95V102.19C272.21 102.23 272.34 102.77 272.32 103.14H272.08C270.44 104.67 268.19 105.58 267.57 108.13V108.84C265.86 111.12 265.64 113.87 266.38 117.15C265.8 117.86 265.15 118.29 265.67 119.52C264.19 119.76 265 120.83 264.01 121.42H263.77C262.81 123.07 260.18 123.06 259.97 125.46C260.37 126.17 262.02 126.89 263.06 126.17C263.34 126.05 263.6 125.92 263.77 125.69C264.54 125.67 265.23 125.57 265.67 125.21H266.14C267.66 124.11 270.12 123.97 272.32 123.55C272.28 124.07 272.51 124.31 273.03 124.26H273.74C274.6 124.08 275.02 123.32 275.88 123.78H276.83C278.06 124.88 280.52 123.45 281.34 122.59C284.72 122.84 287.86 120.91 288.7 117.84H288.94C289.98 117.69 290.04 116.56 290.6 115.94V115.7H290.84C292.78 113.2 294 109.99 295.11 106.67C295.64 106.09 295.63 104.97 295.59 103.82C296.39 103.22 296.1 102.94 296.07 101.68C296.03 100.93 296.7 100.89 296.54 100.02H296.78C297.05 99.74 297.05 99.18 297.02 98.6V97.65H297.26C297.22 96.9 297.26 96.22 297.73 95.99C298.29 97.88 298.75 99.88 299.63 101.45V101.92C300.59 105 301.42 108.21 302.72 110.94C302.61 111.69 303.06 111.87 303.19 112.36C305.53 119.13 307.59 126.17 310.08 132.78V133.02C310.21 133.44 310.2 134.01 310.55 134.21C310.41 135.14 310.76 135.59 311.03 136.11C312.93 139.2 311.42 145.69 316.49 145.61C317.25 144.78 316.92 142.79 316.25 142.05V141.81C316 140.24 315.5 138.91 314.83 137.77C314.94 137.02 314.49 136.84 314.35 136.35C313.48 133.02 312.37 129.94 311.26 126.85V126.61C310.93 125.83 311.16 124.5 310.31 124.24V124C310.07 123.13 309.98 122.11 309.36 121.62V121.38C309.4 120.79 309.41 120.23 308.89 120.19C308.85 118.33 308.18 117.1 307.47 115.91C307.38 114.42 306.86 113.35 306.28 112.35V112.11C305.68 109.62 305.05 107.17 303.9 105.22V104.98C303.94 104.39 303.78 103.99 303.43 103.79V103.55C303.04 102.35 302.88 100.94 302.48 99.75V99.51C302.52 98.92 302.36 98.52 302.01 98.32C302.04 98.03 302.08 97.76 302.48 97.85C303.48 100.01 305.55 101.11 306.76 103.07C308.97 103.87 310.31 106.81 312.7 106.63H312.94C313.14 106.98 313.54 107.14 314.13 107.11C314.13 107.35 314.32 107.39 314.37 107.58C315.78 109.18 317.67 110.29 320.07 110.91C320.24 111.53 320.59 111.98 321.49 111.86V112.1C321.84 112.47 322.71 112.31 323.39 112.34H324.58V112.58C325.14 112.66 325.47 112.96 326.24 112.82H327.43C329.05 112.7 329.38 111.29 330.75 110.92H330.99C332.11 111.09 332.4 110.43 333.13 110.21H333.37C334.56 110.13 335.79 110.1 336.69 109.74H338.35C340.73 109.74 342.9 109.54 343.1 107.36C342.73 106.78 342.09 106.47 341.2 106.41H340.96C339.94 106.16 339.7 105.13 338.11 105.46C338.14 104.16 336.14 104.9 336.69 103.08C334.34 102.16 334.96 99.48 332.65 98.33V97.86C331.47 96.58 329.11 96.49 328.14 95.01C327.19 94.78 327.43 95.72 326.48 95.49C326.59 94.74 326.14 94.56 326 94.06C323.33 94.07 321.2 93.29 318.64 92.64H314.6C313.4 92.62 313.24 92.94 312.23 92.64H310.33C310.33 92.64 310.3 92.42 310.33 92.4C311.82 91.55 316.33 92.29 318.64 91.93H318.88C319.51 92.07 322 92.04 322.92 91.69H323.16C324.43 91.54 326.32 92 327.2 91.45C329.74 91.37 332.4 91.42 334.09 90.5H334.8C335.63 90.54 336.32 90.44 336.7 90.02C338.63 90.05 339.57 89.09 341.45 89.07C345.74 87.98 350.03 86.89 352.14 83.61H352.38C355.22 82.89 356.21 80.31 358.55 79.1C358.6 78.83 358.81 78.73 359.02 78.63C360.27 79.02 360.11 77.23 359.73 76.73C360.55 75.49 362.38 75.26 362.34 73.17C362.27 72.61 361.6 72.64 361.39 72.22C361.7 70.91 364.75 69.93 363.29 68.42H363.05C362.94 67.38 364.47 66.08 364.24 64.15C365 63.96 365.28 63.29 365.9 62.96C366.1 62.29 365.57 62.35 365.66 61.77C366.84 61.21 367.49 60.12 368.27 59.16V58.92C369.09 58.11 370.61 56.89 369.69 55.12C368.44 54.75 367.48 55.64 366.84 56.55H366.6C365.54 57.31 364.25 57.84 363.51 58.92C361.84 59.59 361.22 57.98 360.42 58.92H360.18C358.64 59.19 358.77 57.8 357.8 57.5H356.38C355.4 57.21 354.25 57.1 354.01 56.08C352.13 56.73 351.26 55.82 349.97 56.56C350.16 55.59 347.74 55.32 348.31 56.08V56.32H348.07C347.34 56.15 347.37 56.73 346.65 56.56C344.45 56.31 341.02 55.68 339.76 57.98C339.71 57.71 339.5 57.61 339.28 57.51H338.57C337.52 58.19 337.89 57.41 336.43 57.51C331.15 60.85 326.24 64.57 321.95 68.91V69.15C321.63 69.23 321.49 69.49 321 69.39C319.22 72 316.27 73.2 314.35 75.56C313.15 77.04 312.25 78.38 311.26 79.84C310.08 79.92 309.78 80.89 309.36 81.74C308.95 81.72 308.62 81.79 308.41 81.98C306.77 85.33 304.37 87.92 301.05 89.58C301.15 89.13 301.73 89.15 301.52 88.4C301.34 87.79 302.45 87.31 301.76 86.97V86.73H302C303.61 85.96 303.71 83.69 305.09 82.69C304.82 79.49 308.14 79.89 307.94 76.75C309.45 75.88 309.64 73.7 311.03 72.71C310.62 70 312.71 69.8 313.4 68.2V67.96C315.88 65.85 316.47 61.85 319.34 60.12V59.88C320.36 59.88 319.67 58.15 319.34 57.98C321.17 57.65 319.98 55.5 321.95 55.13C321.73 53.4 323.35 52.26 322.66 50.86V50.62C323.23 49.35 325.31 48.67 324.56 46.82C326.73 44.14 328.03 39.63 326.22 35.42C327.05 34.61 326.41 33.7 326.7 32.57V30.91C326.84 29.5 326.68 28.39 325.75 28.06C326.74 26.91 325.96 24.91 325.51 23.79C324.78 23.48 324.83 23.85 323.85 23.79C324.51 21.57 324.29 18.71 321.24 19.28C321.44 18.83 322.12 18.05 321.24 17.85V17.14C321.39 15.95 320.03 16.13 319.82 15.95C319.77 15.21 319.98 14.21 319.58 13.81C318.71 13.65 318.67 14.32 317.92 14.29C317.71 11.93 316.49 10.9 316.02 8.35C316.28 8.29 316.59 7.96 316.26 7.87V7.16L316.25 7.15Z" fill="white"/>
<path fill-rule="evenodd" clip-rule="evenodd" d="M-9.76585e-06 113.58H7.13999V97.4H10.76C14.85 97.49 16.71 99.16 17.84 104.29C18.94 109.19 19.88 112.44 20.49 113.58H27.87C27.08 112.05 26.01 107.53 24.76 102.61C23.78 98.78 22.12 96.07 19.27 94.99V94.82C22.98 93.51 26.43 90.06 26.43 84.99C26.43 81.61 25.2 78.89 23.04 77.08C20.39 74.86 16.54 73.91 10.9 73.91C6.71999 73.91 2.72999 74.26 -0.0100098 74.76V113.58H-9.76585e-06ZM7.13999 79.7C7.86999 79.51 9.32999 79.33 11.61 79.33C16.26 79.35 19.28 81.36 19.28 85.64C19.28 89.55 16.28 92.12 11.4 92.12H7.13999V79.69V79.7Z" fill="white"/>
<path fill-rule="evenodd" clip-rule="evenodd" d="M55.84 101.35C55.98 100.74 56.09 99.67 56.09 98.33C56.09 92.1 53.08 84.5 43.84 84.5C34.6 84.5 29.94 91.93 29.94 99.77C29.94 108.48 35.35 114.19 44.58 114.19C48.71 114.19 52.08 113.42 54.52 112.39L53.46 107.44C51.29 108.24 48.92 108.76 45.61 108.76C41.01 108.76 37.02 106.51 36.83 101.35H55.85H55.84ZM36.81 96.34C37.13 93.43 38.97 89.41 43.4 89.41C48.22 89.41 49.36 93.71 49.33 96.34H36.82H36.81Z" fill="white"/>
<path fill-rule="evenodd" clip-rule="evenodd" d="M79.65 72.11V88.21H79.53C78.26 86.11 75.46 84.5 71.56 84.5C64.72 84.5 58.77 90.16 58.81 99.69C58.81 108.43 64.19 114.22 70.98 114.22C75.08 114.22 78.52 112.26 80.21 109.08H80.34L80.66 113.58H87.06C86.93 111.65 86.83 108.52 86.83 105.61V72.12H79.64L79.65 72.11ZM79.65 101.25C79.65 102 79.6 102.71 79.43 103.35C78.71 106.46 76.16 108.47 73.22 108.47C68.69 108.47 66.1 104.66 66.1 99.43C66.1 94.2 68.66 90.07 73.3 90.07C76.53 90.07 78.84 92.35 79.48 95.12C79.6 95.7 79.64 96.42 79.64 96.99V101.25H79.65Z" fill="white"/>
<path fill-rule="evenodd" clip-rule="evenodd" d="M93.33 105.6C93.33 108.51 93.23 111.66 93.1 113.57H99.24L99.56 109.29H99.69C101.74 112.81 104.98 114.21 108.65 114.21C115.09 114.21 121.56 109.13 121.56 98.9C121.61 90.24 116.64 84.49 109.71 84.49C105.48 84.49 102.38 86.27 100.63 89.05H100.51V72.1H93.32V105.59L93.33 105.6ZM100.52 97.21C100.52 96.53 100.62 95.9 100.75 95.34C101.52 92.17 104.21 90.09 107.12 90.09C111.86 90.09 114.28 94.21 114.28 99.21C114.28 104.96 111.56 108.54 107.05 108.54C103.95 108.54 101.46 106.42 100.71 103.51C100.59 102.99 100.53 102.41 100.53 101.81V97.21H100.52Z" fill="white"/>
<path d="M126.22 113.58H133.41V98.83C133.41 98.06 133.47 97.3 133.59 96.66C134.23 93.4 136.61 91.22 140.03 91.22C140.9 91.22 141.52 91.3 142.14 91.42V84.65C141.57 84.52 141.15 84.49 140.45 84.49C137.38 84.49 134.07 86.53 132.67 90.54H132.47L132.2 85.14H125.97C126.12 87.67 126.2 90.47 126.2 94.28V113.57L126.22 113.58Z" fill="white"/>
<path fill-rule="evenodd" clip-rule="evenodd" d="M153.02 113.58V85.15H145.83V113.58H153.02ZM149.4 80.75C152.01 80.75 153.66 78.93 153.66 76.65C153.63 74.33 152 72.56 149.43 72.56C146.86 72.56 145.18 74.35 145.19 76.65C145.19 78.93 146.84 80.75 149.34 80.75H149.4Z" fill="white"/>
<path fill-rule="evenodd" clip-rule="evenodd" d="M178.53 72.11V88.21H178.41C177.14 86.11 174.34 84.5 170.44 84.5C163.6 84.5 157.65 90.16 157.69 99.69C157.69 108.43 163.07 114.22 169.86 114.22C173.96 114.22 177.4 112.26 179.09 109.08H179.22L179.54 113.58H185.94C185.81 111.65 185.71 108.52 185.71 105.61V72.12H178.52L178.53 72.11ZM178.53 101.25C178.53 102 178.48 102.71 178.31 103.35C177.59 106.46 175.04 108.47 172.1 108.47C167.57 108.47 164.98 104.66 164.98 99.43C164.98 94.2 167.54 90.07 172.18 90.07C175.41 90.07 177.72 92.35 178.36 95.12C178.48 95.7 178.52 96.42 178.52 96.99V101.25H178.53Z" fill="white"/>
<path fill-rule="evenodd" clip-rule="evenodd" d="M217.97 93.31C217.97 89.42 218.07 87.06 218.21 85.15H211.93L211.67 88.93H211.55C210.19 86.58 207.65 84.5 203.28 84.5C196.49 84.5 190.42 90.14 190.42 99.52C190.42 107.54 195.44 113.39 202.49 113.39C206.26 113.39 209.15 111.7 210.77 109.22H210.89V111.65C210.89 117.77 207.39 120.24 202.72 120.24C199.29 120.24 196.26 119.14 194.42 118.04L192.87 123.52C195.31 124.99 199.15 125.77 202.76 125.77C206.68 125.77 210.79 124.95 213.76 122.31C216.76 119.62 217.97 115.38 217.97 109.42V93.29V93.31ZM210.78 101.16C210.78 101.97 210.69 102.94 210.46 103.68C209.64 106.3 207.35 108.04 204.65 108.04C200.14 108.04 197.7 104.12 197.7 99.29C197.7 93.49 200.7 90 204.68 90C207.74 90 209.79 91.98 210.55 94.62C210.71 95.2 210.78 95.87 210.78 96.56V101.17V101.16Z" fill="white"/>
<path fill-rule="evenodd" clip-rule="evenodd" d="M248.51 101.35C248.65 100.74 248.76 99.67 248.76 98.33C248.76 92.1 245.75 84.5 236.51 84.5C227.27 84.5 222.6 91.93 222.6 99.77C222.6 108.48 228.01 114.19 237.24 114.19C241.37 114.19 244.74 113.42 247.18 112.39L246.12 107.44C243.95 108.24 241.58 108.76 238.27 108.76C233.67 108.76 229.68 106.51 229.49 101.35H248.51ZM229.48 96.34C229.8 93.43 231.64 89.41 236.07 89.41C240.89 89.41 242.03 93.71 242 96.34H229.48Z" fill="white"/>
<path d="M0.039978 60.2H10.07V59.05H1.40998V40.77H0.039978V60.2Z" fill="white"/>
<path fill-rule="evenodd" clip-rule="evenodd" d="M17.04 60.52C20.1 60.52 23.63 58.32 23.63 53.15C23.63 48.91 21.03 46.05 17.21 46.05C13.77 46.05 10.67 48.66 10.67 53.39C10.67 57.73 13.43 60.52 17.01 60.52H17.04ZM17.04 59.38C14.22 59.38 12.02 56.79 12.02 53.33C12.02 50.35 13.62 47.19 17.14 47.19C20.66 47.19 22.21 50.69 22.21 53.22C22.21 56.76 19.94 59.38 17.07 59.38H17.04Z" fill="white"/>
<path d="M26.53 60.2H27.9V51.64C27.9 51.21 27.99 50.74 28.09 50.41C28.64 48.62 30.3 47.23 32.24 47.23C35.1 47.23 36.07 49.51 36.07 52.04V60.21H37.44V51.92C37.44 46.74 33.93 46.06 32.61 46.06C30.34 46.06 28.6 47.32 27.85 48.88H27.79L27.69 46.38H26.41C26.48 47.47 26.53 48.42 26.53 49.69V60.22V60.2Z" fill="white"/>
<path fill-rule="evenodd" clip-rule="evenodd" d="M51.02 39.73V48.48H50.96C50.34 47.28 48.83 46.04 46.45 46.04C43.03 46.04 40.2 48.91 40.22 53.53C40.22 57.66 42.77 60.51 46.18 60.51C48.74 60.51 50.4 59.11 51.1 57.57H51.17L51.26 60.19H52.5C52.43 59.22 52.38 57.99 52.38 56.98V39.73H51.01H51.02ZM51.02 54.6C51.02 55.03 50.98 55.39 50.88 55.75C50.29 58.06 48.43 59.37 46.46 59.37C43.17 59.37 41.61 56.5 41.61 53.38C41.61 49.8 43.52 47.18 46.52 47.18C48.78 47.18 50.4 48.71 50.89 50.57C50.98 50.95 51.03 51.45 51.03 51.83V54.6H51.02Z" fill="white"/>
<path fill-rule="evenodd" clip-rule="evenodd" d="M61.64 60.52C64.7 60.52 68.23 58.32 68.23 53.15C68.23 48.91 65.63 46.05 61.81 46.05C58.37 46.05 55.27 48.66 55.27 53.39C55.27 57.73 58.03 60.52 61.61 60.52H61.64ZM61.64 59.38C58.82 59.38 56.62 56.79 56.62 53.33C56.62 50.35 58.22 47.19 61.74 47.19C65.26 47.19 66.81 50.69 66.81 53.22C66.81 56.76 64.54 59.38 61.67 59.38H61.64Z" fill="white"/>
<path d="M71.13 60.2H72.5V51.64C72.5 51.21 72.59 50.74 72.69 50.41C73.24 48.62 74.89 47.23 76.84 47.23C79.7 47.23 80.67 49.51 80.67 52.04V60.21H82.04V51.92C82.04 46.74 78.53 46.06 77.21 46.06C74.94 46.06 73.2 47.32 72.45 48.88H72.39L72.29 46.38H71.01C71.08 47.47 71.13 48.42 71.13 49.69V60.22V60.2Z" fill="white"/>
<path fill-rule="evenodd" clip-rule="evenodd" d="M91.68 60.18C92.44 60.24 93.57 60.35 95.05 60.35C97.81 60.35 99.9 59.82 101.18 58.49C102.06 57.58 102.62 56.36 102.62 54.78C102.62 51.62 100.14 50.2 98.52 49.84V49.76C100.46 49.09 101.86 47.41 101.86 45.43C101.86 44.07 101.45 43.02 100.66 42.23C99.59 41.15 98 40.62 95.58 40.62C94.12 40.62 92.75 40.78 91.67 41.04V60.18H91.68ZM93.05 41.98C93.49 41.87 94.22 41.77 95.51 41.77C98.39 41.77 100.46 42.76 100.46 45.5C100.46 47.65 98.69 49.32 95.88 49.32H93.04V41.98H93.05ZM93.05 50.43H95.5C98.58 50.43 101.2 51.75 101.2 54.82C101.2 58.13 98.41 59.19 95.43 59.19C94.42 59.19 93.62 59.15 93.05 59.03V50.43Z" fill="white"/>
<path fill-rule="evenodd" clip-rule="evenodd" d="M110.89 60.52C113.94 60.52 117.48 58.32 117.48 53.15C117.48 48.91 114.88 46.05 111.06 46.05C107.62 46.05 104.52 48.66 104.52 53.39C104.52 57.73 107.28 60.52 110.86 60.52H110.89ZM110.89 59.38C108.07 59.38 105.87 56.79 105.87 53.33C105.87 50.35 107.47 47.19 110.99 47.19C114.51 47.19 116.06 50.69 116.06 53.22C116.06 56.76 113.79 59.38 110.92 59.38H110.89Z" fill="white"/>
<path d="M120.37 60.2H121.74V52.56C121.74 52.11 121.78 51.65 121.86 51.25C122.23 49.03 123.6 47.38 125.49 47.38C125.75 47.38 125.94 47.38 126.15 47.42V46.11C125.98 46.07 125.78 46.05 125.59 46.05C123.7 46.05 122.27 47.43 121.66 49.18H121.58L121.52 46.37H120.25C120.32 47.71 120.37 49.14 120.37 50.52V60.2Z" fill="white"/>
<path fill-rule="evenodd" clip-rule="evenodd" d="M133.33 60.52C136.39 60.52 139.92 58.32 139.92 53.15C139.92 48.91 137.32 46.05 133.5 46.05C130.06 46.05 126.96 48.66 126.96 53.39C126.96 57.73 129.72 60.52 133.3 60.52H133.33ZM133.33 59.38C130.51 59.38 128.31 56.79 128.31 53.33C128.31 50.35 129.91 47.19 133.43 47.19C136.95 47.19 138.5 50.69 138.5 53.22C138.5 56.76 136.23 59.38 133.36 59.38H133.33Z" fill="white"/>
<path d="M153.47 46.36H152.1V54.98C152.1 55.54 151.97 56.07 151.83 56.51C151.25 57.91 149.76 59.32 147.75 59.32C145 59.32 144.07 57.16 144.07 54.14V46.37H142.7V54.43C142.7 59.65 145.65 60.53 147.41 60.53C149.89 60.53 151.46 59.03 152.16 57.76H152.22L152.31 60.22H153.59C153.52 59.16 153.47 58.07 153.47 56.84V46.39V46.36Z" fill="white"/>
<path fill-rule="evenodd" clip-rule="evenodd" d="M168.51 49.94C168.51 48.49 168.55 47.4 168.63 46.37H167.36L167.28 48.7H167.22C166.66 47.54 165.29 46.05 162.57 46.05C159.5 46.05 156.34 48.58 156.34 53.41C156.34 57.16 158.8 60.2 162.27 60.2C164.74 60.2 166.36 58.93 167.08 57.53H167.14V59.48C167.14 63.58 165.04 65.09 162.14 65.09C160.35 65.09 158.98 64.56 158.03 63.94L157.54 65.04C158.59 65.83 160.36 66.23 161.94 66.23C163.52 66.23 165.36 65.8 166.62 64.59C167.79 63.49 168.51 61.73 168.51 58.18V49.94ZM167.14 54.47C167.14 54.96 167.05 55.48 166.89 55.93C166.19 57.92 164.47 59.07 162.62 59.07C159.35 59.07 157.71 56.37 157.71 53.26C157.71 49.6 159.73 47.19 162.65 47.19C164.92 47.19 166.38 48.68 166.95 50.35C167.08 50.75 167.12 51.19 167.12 51.68V54.46L167.14 54.47Z" fill="white"/>
<path d="M172.54 60.2H173.91V51.74C173.91 51.18 173.95 50.79 174.1 50.38C174.69 48.66 176.31 47.25 178.27 47.25C181.1 47.25 182.08 49.52 182.08 52.01V60.2H183.45V51.86C183.45 46.71 179.96 46.05 178.64 46.05C177.59 46.05 176.64 46.35 175.85 46.84C175.03 47.32 174.36 48.06 173.96 48.84H173.9V39.74H172.53V60.21L172.54 60.2Z" fill="white"/>
<path fill-rule="evenodd" clip-rule="evenodd" d="M198.29 60.52C201.34 60.52 204.88 58.32 204.88 53.15C204.88 48.91 202.28 46.05 198.46 46.05C195.02 46.05 191.92 48.66 191.92 53.39C191.92 57.73 194.68 60.52 198.26 60.52H198.29ZM198.29 59.38C195.47 59.38 193.27 56.79 193.27 53.33C193.27 50.35 194.87 47.19 198.39 47.19C201.91 47.19 203.46 50.69 203.46 53.22C203.46 56.76 201.19 59.38 198.32 59.38H198.29Z" fill="white"/>
<path d="M209.23 60.2V47.47H212.93V46.36H209.23V45.58C209.23 42.94 209.76 40.57 212.34 40.57C213.18 40.57 213.71 40.76 214.1 40.96L214.53 39.89C214.12 39.64 213.36 39.41 212.46 39.41C211.37 39.41 210.24 39.78 209.39 40.62C208.27 41.74 207.86 43.47 207.86 45.6V46.36H205.86V47.47H207.86V60.2H209.23Z" fill="white"/>
</g>
<defs>
<clipPath id="clip0_102_50">
<rect width="369.96" height="145.6" fill="white"/>
</clipPath>
</defs>
</svg>
